<svg xmlns="http://www.w3.org/2000/svg"><symbol id="check-icon-hover" viewBox="0 0 720 720"><path d="M697 190.34L275.35 612a58.25 58.25 0 0 1-82.35 0 58.045 58.045 0 0 1-3.82-4.21L23 441.65a58.24 58.24 0 0 1 82.36-82.38l129 129L614.65 108A58.24 58.24 0 1 1 697 190.34z"/></symbol><symbol id="facebook-icon-hover" viewBox="0 0 720 720"><path d="M12.76 673.82V45.47c9.72-26.13 29.35-32.75 55.83-32.65 196.8.69 393.6.37 590.39.38 33.88 0 47.9 14.09 47.9 48.15 0 197.26-.28 394.52.35 591.78.08 26.06-6.48 45.31-32.76 54.06H493.76V439.74c6.86-.38 11.85-.87 16.84-.89 20.38-.09 40.77-.44 61.13.14 9.3.26 13.15-2.9 14.21-12.23 3.11-27.58 6.75-55.11 10.67-82.58 1.28-9-1-12.75-10.62-12.61-25.47.38-50.95.16-76.42.07-4.87 0-9.74-.56-15-.88 0-26.64-.85-51.66.25-76.58 1-22.16 12.33-33.83 34.79-35.94 19.3-1.82 38.82-1.95 58.23-1.63 10.21.17 14.12-2.87 13.79-13.26-.57-18-.14-36.12-.13-54.19v-28.87c-15-1.18-27-2.7-38.93-2.92-21.75-.4-43.66-1.61-65.25.35-57.59 5.23-98.64 42.23-110.08 99.2-3.61 18-3.87 36.73-4.58 55.17-.74 19.28-.16 38.6-.16 58.86-6.81.3-11.78.68-16.75.7-20.84.08-41.7-.3-62.52.4-3.7.12-10.36 4.46-10.42 7-.71 32.71-.47 65.43-.47 99.95h90.15v268.18H46.13c-16.62-5.63-27.34-17.18-33.37-33.36z"/></symbol><symbol id="hamburger-icon-hover" viewBox="0 0 720 720"><rect width="114.5" height="700.65" x="302.75" y="-219.31" rx="35.41" ry="35.41" transform="rotate(90 360 131.01)"/><rect width="114.5" height="700.65" x="302.75" y="9.68" rx="35.41" ry="35.41" transform="rotate(90 360 360)"/><rect width="114.5" height="700.65" x="302.75" y="238.67" rx="35.41" ry="35.41" transform="rotate(90 360 588.99)"/></symbol><symbol id="instagram-icon-hover" viewBox="0 0 720 720"><path d="M521.91 707.18H198.39a70.46 70.46 0 0 0-7.57-1.9c-102.33-14.29-177-99-177.72-202.84q-.93-142.44 0-284.9c.5-88.17 53.75-163 136.76-192.7 15.62-5.58 32.33-8.1 48.54-12h323.51a60.77 60.77 0 0 0 6.59 1.8c82 13.12 138 58.53 167.15 136.24 5.67 15.13 7.89 31.56 11.69 47.38v323.5c-.67 2.79-1.51 5.55-2 8.37-13.75 81-58.95 136.5-135.89 165.31-15.18 5.68-31.66 7.92-47.54 11.74zM644.21 360c0-46 .2-92-.14-138-.09-11.43-.72-23.11-3.19-34.22C626 120.59 570.47 76.2 501.13 76q-141-.4-282 .07a146.32 146.32 0 0 0-31.27 3.16C120.74 94.21 76.35 149.68 76.16 219q-.4 141 .07 282a146.26 146.26 0 0 0 3.16 31.27c15 67.14 70.44 111.53 139.78 111.72q141 .4 282-.07a146.35 146.35 0 0 0 31.27-3.16c66.77-14.89 111.23-70.15 111.72-138.8.32-47.32.05-94.65.05-141.96z"/><path d="M360.32 170.66c104.08.14 189.51 85.83 189.17 189.76-.34 104.14-86.14 189.46-190 188.93s-188.61-85.59-188.68-189.27c-.07-104.01 85.53-189.56 189.51-189.42zm126 189.26a126.22 126.22 0 1 0-126.63 126.3 126 126 0 0 0 126.68-126.3zM546.47 145A28.56 28.56 0 1 1 518 173.19 28.68 28.68 0 0 1 546.47 145z"/></symbol><symbol id="minus-icon-hover" viewBox="0 0 720 720"><rect width="116.58" height="713.37" x="301.71" y="3.31" rx="35.41" ry="35.41" transform="rotate(90 360 360)"/></symbol><symbol id="plus-icon-hover" viewBox="0 0 720 720"><path d="M710 360a57.19 57.19 0 0 1-57.2 57.2H417.2v235.59a57.2 57.2 0 1 1-114.39 0V417.2H67.21a57.2 57.2 0 0 1 0-114.39H302.8V67.21a57.2 57.2 0 0 1 114.39 0V302.8h235.6A57.2 57.2 0 0 1 710 360z"/></symbol><symbol id="twitter-icon-hover" viewBox="0 0 720 720"><path d="M5.87 583.66c78.45 7.48 148.79-12.15 211.45-59.81-37.79-2.72-70.42-16.44-97.43-42.88-16.6-16.25-28.53-35.43-36.53-59.09 21.67 3.1 42.39 3.34 64.69-2.69C113 410.86 85.31 393.81 64 367.05s-31.67-57.23-31.62-92.39c20.32 10 40.42 17 64.46 17.38-31.68-23.31-52.12-52.36-59.84-89.2-7.69-36.48-3-71.4 16.13-104.68q118.43 139.45 298.8 152.29c-.54-14.6-1.86-28.2-1.39-41.74 2.08-60.24 45.19-115.54 103.65-131.26 54.21-14.58 102.91-3.49 144 35.93 3.59 3.44 6.83 3.53 11.21 2.49a309 309 0 0 0 81-31.4c.79-.44 1.62-.82 2.52-1.28-.09 12.59-20.22 52.22-57.2 78.71 8.53-1.6 17.12-2.91 25.56-4.87 8.76-2 17.46-4.41 26-7.14s16.74-6 25.1-9.08l1.72 1.8c-13 14.83-25.51 30.08-39.09 44.33-8.4 8.81-18.19 16.35-27.78 23.93-3.84 3-5.55 5.89-5.37 10.87a392.49 392.49 0 0 1-12.6 113.34c-14.38 55.52-38.37 106.61-72.87 152.59-47.67 63.59-108.5 109.72-183.39 136.71-56.42 20.34-114.77 27.17-174.59 23.27C131 643.24 68.73 622.86 11 588c-1.58-1-3.1-2-4.63-3-.1-.15-.13-.43-.5-1.34z"/></symbol><symbol id="x-icon-hover" viewBox="0 0 720 720"><path d="M687.8 580.67a75.76 75.76 0 0 1-107.15 107.12L360 467.12 139.34 687.79A75.75 75.75 0 1 1 32.21 580.67L252.88 360 32.21 139.33A75.75 75.75 0 0 1 139.34 32.21L360 252.88 580.65 32.21A75.76 75.76 0 0 1 687.8 139.33L467.13 360z"/></symbol></svg>